<svg width="400" height="104" viewBox="0 0 400 104" fill="none" xmlns="http://www.w3.org/2000/svg">
<path d="M137.491 25.824C134.227 23.616 130.387 23.136 126.643 23.136C113.395 23.136 102.643 32.352 102.643 47.136C102.643 61.92 111.859 70.944 126.643 70.944C132.499 70.944 138.643 73.92 138.643 80.448C138.643 86.976 133.363 90.624 126.643 90.624C119.923 90.624 114.259 86.592 114.259 80.448H102.643C102.643 93.216 112.915 101.568 126.643 101.568C140.371 101.568 150.355 93.504 150.355 80.448C150.355 74.4 148.435 68.736 140.563 64.8C148.339 61.248 150.547 52.992 150.547 47.136C150.547 41.952 149.203 37.248 145.555 33.12L150.835 26.4L142.195 19.872L137.491 25.824ZM126.643 33.792C133.363 33.792 138.931 38.976 138.931 47.136C138.931 55.296 133.363 60.288 126.643 60.288C119.827 60.288 114.259 55.392 114.259 47.136C114.259 38.88 119.827 33.792 126.643 33.792ZM204.956 52.512C206.78 33.024 196.892 23.232 181.052 23.232C165.692 23.232 155.9 33.6 155.9 48C155.9 63.168 165.596 73.248 181.916 73.248C189.116 73.248 197.276 70.752 202.268 65.568L194.78 58.176C192.092 60.96 186.428 62.592 182.108 62.592C173.852 62.592 168.764 58.368 167.996 52.512H204.956ZM168.188 42.816C169.916 36.672 175.1 33.6 181.436 33.6C188.156 33.6 192.956 36.672 193.724 42.816H168.188ZM216.718 12.576V24.768H207.886V34.848H216.718V55.296C216.718 67.104 223.438 72.96 233.71 72.576C237.262 72.48 240.046 71.904 243.406 70.56L240.142 60.576C238.414 61.44 236.302 62.016 234.478 62.016C230.83 62.016 228.334 59.808 228.334 55.296V34.848H241.486V24.768H228.43V11.328L216.718 12.576ZM250.262 4.8V72H261.974V47.808C261.974 40.704 266.774 34.848 273.686 34.848C279.926 34.848 284.438 38.496 284.438 47.136V72H296.15V47.04C296.15 33.12 290.198 24 276.758 24C271.382 24 266.198 25.632 261.974 31.104V4.8H250.262ZM352.987 52.512C354.811 33.024 344.923 23.232 329.083 23.232C313.723 23.232 303.931 33.6 303.931 48C303.931 63.168 313.627 73.248 329.947 73.248C337.147 73.248 345.307 70.752 350.299 65.568L342.811 58.176C340.123 60.96 334.459 62.592 330.139 62.592C321.883 62.592 316.795 58.368 316.027 52.512H352.987ZM316.219 42.816C317.947 36.672 323.131 33.6 329.467 33.6C336.187 33.6 340.987 36.672 341.755 42.816H316.219ZM362.012 24.672V72H373.724V47.04C373.724 38.304 379.388 35.04 385.532 35.04C389.372 35.04 391.58 36.096 393.98 38.112L399.26 27.936C396.668 25.344 391.964 23.424 387.068 23.424C382.268 23.424 377.372 24.288 373.724 30.144L372.86 24.672H362.012Z" fill="#FF5747"/>
<path d="M22.08 72H34.752V16.32H56.064V4.8C36.576 4.8 20.16 4.8 0.768 4.8V16.32H22.08V72ZM72.237 23.712C57.165 23.712 47.757 34.848 47.757 48.384C47.757 62.016 56.973 73.056 72.333 73.056C87.693 73.056 97.005 62.016 97.005 48.384C97.005 34.848 87.309 23.712 72.237 23.712ZM72.333 34.368C80.205 34.368 85.197 41.28 85.197 48.384C85.197 55.584 80.877 62.304 72.333 62.304C63.789 62.304 59.469 55.584 59.469 48.384C59.469 41.28 63.885 34.368 72.333 34.368Z" fill="#FFAC6B"/>
</svg>
